<svg width="1544" height="210" viewBox="0 0 1544 210" fill="none" xmlns="http://www.w3.org/2000/svg">
<mask id="path-1-inside-1_1_874" fill="white">
<path d="M78.0622 144.092C106.408 144.092 119.835 127.184 123.814 112.513L130.03 113.756C126.798 133.897 116.106 162.741 70.6027 162.741C25.5971 162.741 0.732087 131.162 0.732087 79.4428C0.732087 31.4533 27.089 0.12345 70.3541 0.12345C118.592 0.12345 128.787 31.4533 128.787 62.5346V67.5076L100.689 64.7724C102.679 57.5616 103.673 50.848 103.673 43.8858C103.673 22.2533 90.7434 13.7992 73.3379 13.7992C49.7161 13.7992 25.5971 28.7182 25.5971 79.4428C25.5971 119.475 45.7377 144.092 78.0622 144.092ZM199.359 46.3723C233.424 46.3723 253.067 69.2481 253.067 104.556C253.067 139.865 233.424 162.741 199.359 162.741C165.294 162.741 145.65 139.865 145.65 104.556C145.65 69.2481 165.294 46.3723 199.359 46.3723ZM199.359 150.805C219.997 150.805 227.705 130.913 227.705 104.556C227.705 78.1996 219.997 58.3075 199.359 58.3075C178.721 58.3075 171.013 78.1996 171.013 104.556C171.013 130.913 178.721 150.805 199.359 150.805ZM439.174 87.6482V143.595C439.174 152.546 442.904 154.535 450.612 154.535V161H403.866V154.535C411.574 154.535 415.304 152.546 415.304 143.595V92.1239C415.304 70.4914 411.822 60.0481 397.401 60.0481C383.228 60.0481 369.552 72.4806 369.552 116.243V143.595C369.552 152.546 373.282 154.535 380.99 154.535V161H334.244V154.535C341.952 154.535 345.682 152.546 345.682 143.595V92.1239C345.682 71.2373 342.449 60.0481 327.779 60.0481C315.595 60.0481 301.422 68.9995 301.422 116.243V143.595C301.422 152.546 305.152 154.535 312.86 154.535V161H266.114V154.535C273.822 154.535 277.551 152.546 277.551 143.595V66.0157C277.551 57.0643 273.822 55.0751 266.114 55.0751V48.6102H301.422V77.7022H301.919C303.66 64.2751 312.362 46.3723 336.233 46.3723C355.876 46.3723 366.817 57.5616 369.055 78.6968H370.049C372.038 62.2859 382.73 46.3723 404.612 46.3723C428.233 46.3723 439.174 61.0427 439.174 87.6482ZM527.466 46.3723C552.082 46.3723 572.72 58.8048 572.72 104.556C572.72 150.308 552.082 162.741 527.466 162.741C508.569 162.741 495.39 150.059 491.163 136.881V209.238H455.855V202.773C463.563 202.773 467.293 200.784 467.293 191.833V66.0157C467.293 57.0643 463.563 55.0751 455.855 55.0751V48.6102H491.163V70.4914C495.142 58.0589 508.32 46.3723 527.466 46.3723ZM521.25 150.805C542.882 150.805 547.358 130.913 547.358 104.556C547.358 78.4482 542.385 58.3075 521.25 58.3075C507.325 58.3075 491.163 68.2535 491.163 104.556C491.163 140.859 507.325 150.805 521.25 150.805ZM677.101 99.8321V143.595C677.101 152.546 680.831 154.535 688.539 154.535V161H656.214V129.421H655.468C652.236 145.584 643.533 162.741 620.906 162.741C599.522 162.741 587.587 150.557 587.587 124.448C587.587 118.481 588.581 110.275 591.317 103.811L654.971 96.8483V92.6213C654.971 70.7401 648.009 58.3075 632.593 58.3075C619.414 58.3075 613.198 66.2643 613.198 76.7076C613.198 79.6914 613.695 82.178 614.441 84.9131V85.6591L592.809 87.6482C592.311 86.1563 590.819 82.178 590.819 77.9509C590.819 60.0481 607.479 46.3723 633.836 46.3723C675.36 46.3723 677.101 76.9563 677.101 99.8321ZM626.625 149.065C640.052 149.065 652.236 135.14 654.474 104.059L612.701 112.513C611.209 116.243 610.463 121.713 610.463 127.184C610.463 140.113 615.684 149.065 626.625 149.065ZM771.341 47.1183C780.293 47.1183 788.747 50.5994 792.974 57.0643L784.768 79.9401L782.033 79.1941C782.282 72.2319 776.563 65.2697 766.617 65.2697C751.698 65.2697 737.773 78.9455 737.773 127.681V143.595C737.773 152.546 741.503 154.535 749.211 154.535V161H702.465V154.535C710.173 154.535 713.903 152.546 713.903 143.595V66.0157C713.903 57.0643 710.173 55.0751 702.465 55.0751V48.6102H737.773V88.3942H738.271C741.503 69.7454 749.709 47.1183 771.341 47.1183ZM895.248 127.432L900.221 129.421C896.243 141.357 885.302 162.741 856.459 162.741C823.637 162.741 801.756 143.097 801.756 104.059C801.756 66.0157 821.897 46.3723 853.475 46.3723C883.065 46.3723 898.978 63.2806 898.978 90.8807C898.978 96.1023 898.978 99.0861 898.481 103.065L824.632 105.302C825.378 133.897 839.302 148.816 862.178 148.816C882.07 148.816 891.021 136.135 895.248 127.432ZM854.221 58.3075C838.308 58.3075 826.372 68.9995 824.881 97.097L875.356 93.1186C876.102 89.8861 876.6 86.405 876.6 82.178C876.6 69.4968 868.394 58.3075 854.221 58.3075ZM1045.95 144.092C1074.3 144.092 1087.72 127.184 1091.7 112.513L1097.92 113.756C1094.69 133.897 1084 162.741 1038.49 162.741C993.487 162.741 968.622 131.162 968.622 79.4428C968.622 31.4533 994.979 0.12345 1038.24 0.12345C1086.48 0.12345 1096.68 31.4533 1096.68 62.5346V67.5076L1068.58 64.7724C1070.57 57.5616 1071.56 50.848 1071.56 43.8858C1071.56 22.2533 1058.63 13.7992 1041.23 13.7992C1017.61 13.7992 993.487 28.7182 993.487 79.4428C993.487 119.475 1013.63 144.092 1045.95 144.092ZM1204.27 99.8321V143.595C1204.27 152.546 1208 154.535 1215.71 154.535V161H1183.38V129.421H1182.64C1179.4 145.584 1170.7 162.741 1148.07 162.741C1126.69 162.741 1114.75 150.557 1114.75 124.448C1114.75 118.481 1115.75 110.275 1118.48 103.811L1182.14 96.8483V92.6213C1182.14 70.7401 1175.18 58.3075 1159.76 58.3075C1146.58 58.3075 1140.36 66.2643 1140.36 76.7076C1140.36 79.6914 1140.86 82.178 1141.61 84.9131V85.6591L1119.98 87.6482C1119.48 86.1563 1117.99 82.178 1117.99 77.9509C1117.99 60.0481 1134.65 46.3723 1161 46.3723C1202.53 46.3723 1204.27 76.9563 1204.27 99.8321ZM1153.79 149.065C1167.22 149.065 1179.4 135.14 1181.64 104.059L1139.87 112.513C1138.38 116.243 1137.63 121.713 1137.63 127.184C1137.63 140.113 1142.85 149.065 1153.79 149.065ZM1298.51 47.1183C1307.46 47.1183 1315.91 50.5994 1320.14 57.0643L1311.94 79.9401L1309.2 79.1941C1309.45 72.2319 1303.73 65.2697 1293.78 65.2697C1278.87 65.2697 1264.94 78.9455 1264.94 127.681V143.595C1264.94 152.546 1268.67 154.535 1276.38 154.535V161H1229.63V154.535C1237.34 154.535 1241.07 152.546 1241.07 143.595V66.0157C1241.07 57.0643 1237.34 55.0751 1229.63 55.0751V48.6102H1264.94V88.3942H1265.44C1268.67 69.7454 1276.88 47.1183 1298.51 47.1183ZM1430.47 2.60995V143.595C1430.47 152.546 1434.2 154.535 1441.9 154.535V161H1406.6V136.881C1402.37 150.059 1389.19 162.741 1370.29 162.741C1345.68 162.741 1325.04 150.308 1325.04 104.556C1325.04 58.8048 1345.68 46.3723 1370.29 46.3723C1389.44 46.3723 1402.62 58.0589 1406.6 70.4914V20.0154C1406.6 11.064 1402.87 9.07485 1395.16 9.07485V2.60995H1430.47ZM1376.51 150.805C1390.43 150.805 1406.6 140.859 1406.6 104.556C1406.6 68.2535 1390.43 58.3075 1376.51 58.3075C1355.37 58.3075 1350.4 78.4482 1350.4 104.556C1350.4 130.913 1354.88 150.805 1376.51 150.805ZM1496.66 90.632L1515.81 95.8537C1537.94 101.821 1543.16 115 1543.16 129.421C1543.16 158.016 1517.8 162.741 1499.65 162.741C1475.78 162.741 1462.35 152.795 1456.13 144.838V113.756H1460.36C1465.33 139.119 1479.01 150.805 1498.9 150.805C1512.83 150.805 1521.78 144.092 1521.78 131.659C1521.78 122.459 1516.31 116.989 1505.86 114.254L1483.73 108.535C1467.32 104.308 1458.62 94.8591 1458.62 80.686C1458.62 61.2913 1474.04 46.3723 1501.64 46.3723C1515.56 46.3723 1528.99 50.848 1537.69 58.3075L1540.18 87.6482L1535.95 88.1455C1528.99 69.2481 1519.04 58.3075 1501.64 58.3075C1489.45 58.3075 1480 65.0211 1480 75.2157C1480 82.6752 1482.74 86.9023 1496.66 90.632Z"/>
</mask>
<g filter="url(#filter0_i_1_874)">
<path d="M78.0622 144.092C106.408 144.092 119.835 127.184 123.814 112.513L130.03 113.756C126.798 133.897 116.106 162.741 70.6027 162.741C25.5971 162.741 0.732087 131.162 0.732087 79.4428C0.732087 31.4533 27.089 0.12345 70.3541 0.12345C118.592 0.12345 128.787 31.4533 128.787 62.5346V67.5076L100.689 64.7724C102.679 57.5616 103.673 50.848 103.673 43.8858C103.673 22.2533 90.7434 13.7992 73.3379 13.7992C49.7161 13.7992 25.5971 28.7182 25.5971 79.4428C25.5971 119.475 45.7377 144.092 78.0622 144.092ZM199.359 46.3723C233.424 46.3723 253.067 69.2481 253.067 104.556C253.067 139.865 233.424 162.741 199.359 162.741C165.294 162.741 145.65 139.865 145.65 104.556C145.65 69.2481 165.294 46.3723 199.359 46.3723ZM199.359 150.805C219.997 150.805 227.705 130.913 227.705 104.556C227.705 78.1996 219.997 58.3075 199.359 58.3075C178.721 58.3075 171.013 78.1996 171.013 104.556C171.013 130.913 178.721 150.805 199.359 150.805ZM439.174 87.6482V143.595C439.174 152.546 442.904 154.535 450.612 154.535V161H403.866V154.535C411.574 154.535 415.304 152.546 415.304 143.595V92.1239C415.304 70.4914 411.822 60.0481 397.401 60.0481C383.228 60.0481 369.552 72.4806 369.552 116.243V143.595C369.552 152.546 373.282 154.535 380.99 154.535V161H334.244V154.535C341.952 154.535 345.682 152.546 345.682 143.595V92.1239C345.682 71.2373 342.449 60.0481 327.779 60.0481C315.595 60.0481 301.422 68.9995 301.422 116.243V143.595C301.422 152.546 305.152 154.535 312.86 154.535V161H266.114V154.535C273.822 154.535 277.551 152.546 277.551 143.595V66.0157C277.551 57.0643 273.822 55.0751 266.114 55.0751V48.6102H301.422V77.7022H301.919C303.66 64.2751 312.362 46.3723 336.233 46.3723C355.876 46.3723 366.817 57.5616 369.055 78.6968H370.049C372.038 62.2859 382.73 46.3723 404.612 46.3723C428.233 46.3723 439.174 61.0427 439.174 87.6482ZM527.466 46.3723C552.082 46.3723 572.72 58.8048 572.72 104.556C572.72 150.308 552.082 162.741 527.466 162.741C508.569 162.741 495.39 150.059 491.163 136.881V209.238H455.855V202.773C463.563 202.773 467.293 200.784 467.293 191.833V66.0157C467.293 57.0643 463.563 55.0751 455.855 55.0751V48.6102H491.163V70.4914C495.142 58.0589 508.32 46.3723 527.466 46.3723ZM521.25 150.805C542.882 150.805 547.358 130.913 547.358 104.556C547.358 78.4482 542.385 58.3075 521.25 58.3075C507.325 58.3075 491.163 68.2535 491.163 104.556C491.163 140.859 507.325 150.805 521.25 150.805ZM677.101 99.8321V143.595C677.101 152.546 680.831 154.535 688.539 154.535V161H656.214V129.421H655.468C652.236 145.584 643.533 162.741 620.906 162.741C599.522 162.741 587.587 150.557 587.587 124.448C587.587 118.481 588.581 110.275 591.317 103.811L654.971 96.8483V92.6213C654.971 70.7401 648.009 58.3075 632.593 58.3075C619.414 58.3075 613.198 66.2643 613.198 76.7076C613.198 79.6914 613.695 82.178 614.441 84.9131V85.6591L592.809 87.6482C592.311 86.1563 590.819 82.178 590.819 77.9509C590.819 60.0481 607.479 46.3723 633.836 46.3723C675.36 46.3723 677.101 76.9563 677.101 99.8321ZM626.625 149.065C640.052 149.065 652.236 135.14 654.474 104.059L612.701 112.513C611.209 116.243 610.463 121.713 610.463 127.184C610.463 140.113 615.684 149.065 626.625 149.065ZM771.341 47.1183C780.293 47.1183 788.747 50.5994 792.974 57.0643L784.768 79.9401L782.033 79.1941C782.282 72.2319 776.563 65.2697 766.617 65.2697C751.698 65.2697 737.773 78.9455 737.773 127.681V143.595C737.773 152.546 741.503 154.535 749.211 154.535V161H702.465V154.535C710.173 154.535 713.903 152.546 713.903 143.595V66.0157C713.903 57.0643 710.173 55.0751 702.465 55.0751V48.6102H737.773V88.3942H738.271C741.503 69.7454 749.709 47.1183 771.341 47.1183ZM895.248 127.432L900.221 129.421C896.243 141.357 885.302 162.741 856.459 162.741C823.637 162.741 801.756 143.097 801.756 104.059C801.756 66.0157 821.897 46.3723 853.475 46.3723C883.065 46.3723 898.978 63.2806 898.978 90.8807C898.978 96.1023 898.978 99.0861 898.481 103.065L824.632 105.302C825.378 133.897 839.302 148.816 862.178 148.816C882.07 148.816 891.021 136.135 895.248 127.432ZM854.221 58.3075C838.308 58.3075 826.372 68.9995 824.881 97.097L875.356 93.1186C876.102 89.8861 876.6 86.405 876.6 82.178C876.6 69.4968 868.394 58.3075 854.221 58.3075ZM1045.95 144.092C1074.3 144.092 1087.72 127.184 1091.7 112.513L1097.92 113.756C1094.69 133.897 1084 162.741 1038.49 162.741C993.487 162.741 968.622 131.162 968.622 79.4428C968.622 31.4533 994.979 0.12345 1038.24 0.12345C1086.48 0.12345 1096.68 31.4533 1096.68 62.5346V67.5076L1068.58 64.7724C1070.57 57.5616 1071.56 50.848 1071.56 43.8858C1071.56 22.2533 1058.63 13.7992 1041.23 13.7992C1017.61 13.7992 993.487 28.7182 993.487 79.4428C993.487 119.475 1013.63 144.092 1045.95 144.092ZM1204.27 99.8321V143.595C1204.27 152.546 1208 154.535 1215.71 154.535V161H1183.38V129.421H1182.64C1179.4 145.584 1170.7 162.741 1148.07 162.741C1126.69 162.741 1114.75 150.557 1114.75 124.448C1114.75 118.481 1115.75 110.275 1118.48 103.811L1182.14 96.8483V92.6213C1182.14 70.7401 1175.18 58.3075 1159.76 58.3075C1146.58 58.3075 1140.36 66.2643 1140.36 76.7076C1140.36 79.6914 1140.86 82.178 1141.61 84.9131V85.6591L1119.98 87.6482C1119.48 86.1563 1117.99 82.178 1117.99 77.9509C1117.99 60.0481 1134.65 46.3723 1161 46.3723C1202.53 46.3723 1204.27 76.9563 1204.27 99.8321ZM1153.79 149.065C1167.22 149.065 1179.4 135.14 1181.64 104.059L1139.87 112.513C1138.38 116.243 1137.63 121.713 1137.63 127.184C1137.63 140.113 1142.85 149.065 1153.79 149.065ZM1298.51 47.1183C1307.46 47.1183 1315.91 50.5994 1320.14 57.0643L1311.94 79.9401L1309.2 79.1941C1309.45 72.2319 1303.73 65.2697 1293.78 65.2697C1278.87 65.2697 1264.94 78.9455 1264.94 127.681V143.595C1264.94 152.546 1268.67 154.535 1276.38 154.535V161H1229.63V154.535C1237.34 154.535 1241.07 152.546 1241.07 143.595V66.0157C1241.07 57.0643 1237.34 55.0751 1229.63 55.0751V48.6102H1264.94V88.3942H1265.44C1268.67 69.7454 1276.88 47.1183 1298.51 47.1183ZM1430.47 2.60995V143.595C1430.47 152.546 1434.2 154.535 1441.9 154.535V161H1406.6V136.881C1402.37 150.059 1389.19 162.741 1370.29 162.741C1345.68 162.741 1325.04 150.308 1325.04 104.556C1325.04 58.8048 1345.68 46.3723 1370.29 46.3723C1389.44 46.3723 1402.62 58.0589 1406.6 70.4914V20.0154C1406.6 11.064 1402.87 9.07485 1395.16 9.07485V2.60995H1430.47ZM1376.51 150.805C1390.43 150.805 1406.6 140.859 1406.6 104.556C1406.6 68.2535 1390.43 58.3075 1376.51 58.3075C1355.37 58.3075 1350.4 78.4482 1350.4 104.556C1350.4 130.913 1354.88 150.805 1376.51 150.805ZM1496.66 90.632L1515.81 95.8537C1537.94 101.821 1543.16 115 1543.16 129.421C1543.16 158.016 1517.8 162.741 1499.65 162.741C1475.78 162.741 1462.35 152.795 1456.13 144.838V113.756H1460.36C1465.33 139.119 1479.01 150.805 1498.9 150.805C1512.83 150.805 1521.78 144.092 1521.78 131.659C1521.78 122.459 1516.31 116.989 1505.86 114.254L1483.73 108.535C1467.32 104.308 1458.62 94.8591 1458.62 80.686C1458.62 61.2913 1474.04 46.3723 1501.64 46.3723C1515.56 46.3723 1528.99 50.848 1537.69 58.3075L1540.18 87.6482L1535.95 88.1455C1528.99 69.2481 1519.04 58.3075 1501.64 58.3075C1489.45 58.3075 1480 65.0211 1480 75.2157C1480 82.6752 1482.74 86.9023 1496.66 90.632Z" fill="url(#paint0_linear_1_874)"/>
</g>
<path d="M123.814 112.513L124.01 111.533L123.093 111.349L122.849 112.252L123.814 112.513ZM130.03 113.756L131.017 113.915L131.17 112.965L130.226 112.776L130.03 113.756ZM128.787 67.5076L128.69 68.5029L129.787 68.6097V67.5076H128.787ZM100.689 64.7724L99.7254 64.5065L99.4092 65.6526L100.593 65.7677L100.689 64.7724ZM78.0622 145.092C106.915 145.092 120.697 127.826 124.779 112.775L122.849 112.252C118.973 126.541 105.902 143.092 78.0622 143.092V145.092ZM123.618 113.494L129.834 114.737L130.226 112.776L124.01 111.533L123.618 113.494ZM129.043 113.598C127.439 123.591 124.001 135.613 115.425 145.132C106.881 154.615 93.1221 161.741 70.6027 161.741V163.741C93.5863 163.741 107.924 156.445 116.911 146.471C125.864 136.533 129.389 124.063 131.017 113.915L129.043 113.598ZM70.6027 161.741C48.3526 161.741 31.1864 153.946 19.5618 139.85C7.91449 125.727 1.73209 105.157 1.73209 79.4428H-0.267913C-0.267913 105.448 5.98219 126.527 18.0188 141.123C30.0781 155.746 47.8472 163.741 70.6027 163.741V161.741ZM1.73209 79.4428C1.73209 55.6239 8.27233 36.048 20.0741 22.4423C31.8616 8.85309 48.9796 1.12345 70.3541 1.12345V-0.87655C48.4635 -0.87655 30.7705 7.05876 18.5633 21.1318C6.37029 35.1885 -0.267913 55.2722 -0.267913 79.4428H1.73209ZM70.3541 1.12345C94.2377 1.12345 108.507 8.86448 116.853 20.2643C125.244 31.7259 127.787 47.0697 127.787 62.5346H129.787C129.787 46.9182 127.232 31.0564 118.467 19.0828C109.656 7.04737 94.7086 -0.87655 70.3541 -0.87655V1.12345ZM127.787 62.5346V67.5076H129.787V62.5346H127.787ZM128.884 66.5123L100.786 63.7772L100.593 65.7677L128.69 68.5029L128.884 66.5123ZM101.653 65.0384C103.663 57.7524 104.673 50.9491 104.673 43.8858H102.673C102.673 50.747 101.694 57.3708 99.7254 64.5065L101.653 65.0384ZM104.673 43.8858C104.673 32.8651 101.373 25.0388 95.6978 19.9836C90.0439 14.9471 82.1866 12.7992 73.3379 12.7992V14.7992C81.8947 14.7992 89.2051 16.8784 94.3674 21.477C99.5089 26.057 102.673 33.274 102.673 43.8858H104.673ZM73.3379 12.7992C61.3146 12.7992 49.0788 16.6018 39.8631 26.9336C30.6606 37.2506 24.5971 53.9358 24.5971 79.4428H26.5971C26.5971 54.2252 32.5931 38.0886 41.3556 28.2649C50.1049 18.4561 61.7395 14.7992 73.3379 14.7992V12.7992ZM24.5971 79.4428C24.5971 99.6156 29.671 116.024 38.9322 127.411C48.2127 138.82 61.6234 145.092 78.0622 145.092V143.092C62.1766 143.092 49.3547 137.055 40.4838 126.149C31.5935 115.218 26.5971 99.3027 26.5971 79.4428H24.5971ZM199.359 47.3723C216.156 47.3723 229.296 53.0046 238.246 62.8948C247.207 72.798 252.067 87.0814 252.067 104.556H254.067C254.067 86.7232 249.105 71.9145 239.729 61.5528C230.341 51.178 216.626 45.3723 199.359 45.3723V47.3723ZM252.067 104.556C252.067 122.031 247.207 136.315 238.246 146.218C229.296 156.108 216.156 161.741 199.359 161.741V163.741C216.626 163.741 230.341 157.935 239.729 147.56C249.105 137.198 254.067 122.39 254.067 104.556H252.067ZM199.359 161.741C182.561 161.741 169.421 156.108 160.472 146.218C151.51 136.315 146.65 122.031 146.65 104.556H144.65C144.65 122.39 149.612 137.198 158.989 147.56C168.377 157.935 182.091 163.741 199.359 163.741V161.741ZM146.65 104.556C146.65 87.0814 151.51 72.798 160.472 62.8948C169.421 53.0046 182.561 47.3723 199.359 47.3723V45.3723C182.091 45.3723 168.377 51.178 158.989 61.5528C149.612 71.9145 144.65 86.7232 144.65 104.556H146.65ZM199.359 151.805C210.082 151.805 217.486 146.598 222.149 138.043C226.773 129.561 228.705 117.803 228.705 104.556H226.705C226.705 117.667 224.783 129.033 220.393 137.086C216.043 145.067 209.274 149.805 199.359 149.805V151.805ZM228.705 104.556C228.705 91.31 226.773 79.5516 222.149 71.0695C217.486 62.5152 210.082 57.3075 199.359 57.3075V59.3075C209.274 59.3075 216.043 64.0459 220.393 72.0268C224.783 80.0799 226.705 91.446 226.705 104.556H228.705ZM199.359 57.3075C188.636 57.3075 181.232 62.5152 176.568 71.0695C171.945 79.5516 170.013 91.31 170.013 104.556H172.013C172.013 91.446 173.935 80.0799 178.324 72.0268C182.675 64.0459 189.444 59.3075 199.359 59.3075V57.3075ZM170.013 104.556C170.013 117.803 171.945 129.561 176.568 138.043C181.232 146.598 188.636 151.805 199.359 151.805V149.805C189.444 149.805 182.675 145.067 178.324 137.086C173.935 129.033 172.013 117.667 172.013 104.556H170.013ZM450.612 154.535H451.612V153.535H450.612V154.535ZM450.612 161V162H451.612V161H450.612ZM403.866 161H402.866V162H403.866V161ZM403.866 154.535V153.535H402.866V154.535H403.866ZM380.99 154.535H381.99V153.535H380.99V154.535ZM380.99 161V162H381.99V161H380.99ZM334.244 161H333.244V162H334.244V161ZM334.244 154.535V153.535H333.244V154.535H334.244ZM312.86 154.535H313.86V153.535H312.86V154.535ZM312.86 161V162H313.86V161H312.86ZM266.114 161H265.114V162H266.114V161ZM266.114 154.535V153.535H265.114V154.535H266.114ZM266.114 55.0751H265.114V56.0751H266.114V55.0751ZM266.114 48.6102V47.6102H265.114V48.6102H266.114ZM301.422 48.6102H302.422V47.6102H301.422V48.6102ZM301.422 77.7022H300.422V78.7022H301.422V77.7022ZM301.919 77.7022V78.7022H302.798L302.911 77.8308L301.919 77.7022ZM369.055 78.6968L368.06 78.8021L368.155 79.6968H369.055V78.6968ZM370.049 78.6968V79.6968H370.935L371.042 78.8172L370.049 78.6968ZM438.174 87.6482V143.595H440.174V87.6482H438.174ZM438.174 143.595C438.174 148.168 439.12 151.279 441.354 153.183C443.545 155.051 446.735 155.535 450.612 155.535V153.535C446.78 153.535 444.251 153.025 442.651 151.661C441.093 150.332 440.174 147.972 440.174 143.595H438.174ZM449.612 154.535V161H451.612V154.535H449.612ZM450.612 160H403.866V162H450.612V160ZM404.866 161V154.535H402.866V161H404.866ZM403.866 155.535C407.742 155.535 410.932 155.051 413.124 153.183C415.357 151.279 416.304 148.168 416.304 143.595H414.304C414.304 147.972 413.385 150.332 411.826 151.661C410.226 153.025 407.697 153.535 403.866 153.535V155.535ZM416.304 143.595V92.1239H414.304V143.595H416.304ZM416.304 92.1239C416.304 81.3108 415.444 73.0729 412.654 67.5245C411.242 64.7172 409.325 62.5743 406.77 61.1451C404.226 59.7219 401.123 59.0481 397.401 59.0481V61.0481C400.889 61.0481 403.629 61.6797 405.794 62.8906C407.948 64.0956 409.606 65.9155 410.867 68.4231C413.422 73.5046 414.304 81.3045 414.304 92.1239H416.304ZM397.401 59.0481C389.963 59.0481 382.677 62.3401 377.306 71.217C371.977 80.0235 368.552 94.2874 368.552 116.243H370.552C370.552 94.4362 373.964 80.6026 379.017 72.2523C384.027 63.9724 390.665 61.0481 397.401 61.0481V59.0481ZM368.552 116.243V143.595H370.552V116.243H368.552ZM368.552 143.595C368.552 148.168 369.498 151.279 371.732 153.183C373.923 155.051 377.113 155.535 380.99 155.535V153.535C377.158 153.535 374.629 153.025 373.029 151.661C371.471 150.332 370.552 147.972 370.552 143.595H368.552ZM379.99 154.535V161H381.99V154.535H379.99ZM380.99 160H334.244V162H380.99V160ZM335.244 161V154.535H333.244V161H335.244ZM334.244 155.535C338.12 155.535 341.31 155.051 343.502 153.183C345.735 151.279 346.682 148.168 346.682 143.595H344.682C344.682 147.972 343.763 150.332 342.204 151.661C340.604 153.025 338.075 153.535 334.244 153.535V155.535ZM346.682 143.595V92.1239H344.682V143.595H346.682ZM346.682 92.1239C346.682 81.684 345.884 73.4517 343.13 67.8146C341.738 64.9646 339.833 62.7496 337.268 61.2582C334.71 59.7715 331.571 59.0481 327.779 59.0481V61.0481C331.321 61.0481 334.088 61.7234 336.263 62.9873C338.429 64.2466 340.083 66.1344 341.333 68.6925C343.863 73.8717 344.682 81.6773 344.682 92.1239H346.682ZM327.779 59.0481C321.386 59.0481 314.454 61.428 309.182 69.901C303.968 78.282 300.422 92.5573 300.422 116.243H302.422C302.422 92.6852 305.962 78.863 310.88 70.9575C315.742 63.1439 321.987 61.0481 327.779 61.0481V59.0481ZM300.422 116.243V143.595H302.422V116.243H300.422ZM300.422 143.595C300.422 148.168 301.368 151.279 303.601 153.183C305.793 155.051 308.983 155.535 312.86 155.535V153.535C309.028 153.535 306.499 153.025 304.899 151.661C303.341 150.332 302.422 147.972 302.422 143.595H300.422ZM311.86 154.535V161H313.86V154.535H311.86ZM312.86 160H266.114V162H312.86V160ZM267.114 161V154.535H265.114V161H267.114ZM266.114 155.535C269.99 155.535 273.18 155.051 275.372 153.183C277.605 151.279 278.551 148.168 278.551 143.595H276.551C276.551 147.972 275.633 150.332 274.074 151.661C272.474 153.025 269.945 153.535 266.114 153.535V155.535ZM278.551 143.595V66.0157H276.551V143.595H278.551ZM278.551 66.0157C278.551 61.4421 277.605 58.3316 275.372 56.4276C273.18 54.5593 269.99 54.0751 266.114 54.0751V56.0751C269.945 56.0751 272.474 56.5855 274.074 57.9496C275.633 59.2781 276.551 61.6379 276.551 66.0157H278.551ZM267.114 55.0751V48.6102H265.114V55.0751H267.114ZM266.114 49.6102H301.422V47.6102H266.114V49.6102ZM300.422 48.6102V77.7022H302.422V48.6102H300.422ZM301.422 78.7022H301.919V76.7022H301.422V78.7022ZM302.911 77.8308C303.764 71.2525 306.319 63.6248 311.53 57.6601C316.714 51.7276 324.581 47.3723 336.233 47.3723V45.3723C324.015 45.3723 315.595 49.9685 310.024 56.3442C304.482 62.6876 301.815 70.7249 300.927 77.5737L302.911 77.8308ZM336.233 47.3723C345.859 47.3723 353.226 50.1084 358.466 55.318C363.72 60.542 366.956 68.3747 368.06 78.8021L370.049 78.5916C368.915 67.8837 365.563 59.5542 359.876 53.8998C354.175 48.231 346.25 45.3723 336.233 45.3723V47.3723ZM369.055 79.6968H370.049V77.6968H369.055V79.6968ZM371.042 78.8172C372.017 70.7744 375.119 62.9071 380.6 57.0647C386.062 51.2433 393.938 47.3723 404.612 47.3723V45.3723C393.404 45.3723 384.994 49.4582 379.142 55.6963C373.309 61.9134 370.071 70.2084 369.056 78.5765L371.042 78.8172ZM404.612 47.3723C416.204 47.3723 424.524 50.9619 429.975 57.6642C435.458 64.4054 438.174 74.4576 438.174 87.6482H440.174C440.174 74.2333 437.42 63.6476 431.527 56.4022C425.602 49.118 416.64 45.3723 404.612 45.3723V47.3723ZM491.163 136.881L492.115 136.576L490.163 136.881H491.163ZM491.163 209.238V210.238H492.163V209.238H491.163ZM455.855 209.238H454.855V210.238H455.855V209.238ZM455.855 202.773V201.773H454.855V202.773H455.855ZM455.855 55.0751H454.855V56.0751H455.855V55.0751ZM455.855 48.6102V47.6102H454.855V48.6102H455.855ZM491.163 48.6102H492.163V47.6102H491.163V48.6102ZM491.163 70.4914H490.163L492.116 70.7962L491.163 70.4914ZM527.466 47.3723C539.615 47.3723 550.613 50.4379 558.593 58.9898C566.587 67.5571 571.72 81.8092 571.72 104.556H573.72C573.72 81.5521 568.534 66.7121 560.055 57.6253C551.562 48.523 539.934 45.3723 527.466 45.3723V47.3723ZM571.72 104.556C571.72 127.304 566.587 141.556 558.593 150.123C550.613 158.675 539.615 161.741 527.466 161.741V163.741C539.934 163.741 551.562 160.59 560.055 151.488C568.534 142.401 573.72 127.561 573.72 104.556H571.72ZM527.466 161.741C509.054 161.741 496.226 149.391 492.115 136.576L490.211 137.186C494.554 150.728 508.083 163.741 527.466 163.741V161.741ZM490.163 136.881V209.238H492.163V136.881H490.163ZM491.163 208.238H455.855V210.238H491.163V208.238ZM456.855 209.238V202.773H454.855V209.238H456.855ZM455.855 203.773C459.732 203.773 462.921 203.289 465.113 201.421C467.347 199.517 468.293 196.406 468.293 191.833H466.293C466.293 196.21 465.374 198.57 463.816 199.899C462.215 201.263 459.686 201.773 455.855 201.773V203.773ZM468.293 191.833V66.0157H466.293V191.833H468.293ZM468.293 66.0157C468.293 61.4421 467.347 58.3316 465.113 56.4276C462.921 54.5593 459.732 54.0751 455.855 54.0751V56.0751C459.686 56.0751 462.215 56.5855 463.816 57.9496C465.374 59.2781 466.293 61.6379 466.293 66.0157H468.293ZM456.855 55.0751V48.6102H454.855V55.0751H456.855ZM455.855 49.6102H491.163V47.6102H455.855V49.6102ZM490.163 48.6102V70.4914H492.163V48.6102H490.163ZM492.116 70.7962C495.959 58.7843 508.748 47.3723 527.466 47.3723V45.3723C507.892 45.3723 494.324 57.3334 490.211 70.1866L492.116 70.7962ZM521.25 151.805C526.816 151.805 531.351 150.524 535.005 148.121C538.656 145.72 541.353 142.247 543.324 137.984C547.246 129.503 548.358 117.748 548.358 104.556H546.358C546.358 117.722 545.233 129.091 541.508 137.145C539.656 141.15 537.178 144.298 533.906 146.45C530.636 148.6 526.5 149.805 521.25 149.805V151.805ZM548.358 104.556C548.358 91.4784 547.119 79.7272 543.135 71.2174C541.134 66.9434 538.425 63.4506 534.801 61.0308C531.173 58.6081 526.699 57.3075 521.25 57.3075V59.3075C526.368 59.3075 530.441 60.5245 533.69 62.6941C536.943 64.8666 539.44 68.0408 541.324 72.0654C545.11 80.153 546.358 91.5263 546.358 104.556H548.358ZM521.25 57.3075C514.04 57.3075 506.214 59.891 500.213 67.1829C494.231 74.4507 490.163 86.2732 490.163 104.556H492.163C492.163 86.5368 496.176 75.2348 501.757 68.4539C507.318 61.6971 514.535 59.3075 521.25 59.3075V57.3075ZM490.163 104.556C490.163 122.84 494.231 134.662 500.213 141.93C506.214 149.222 514.04 151.805 521.25 151.805V149.805C514.535 149.805 507.318 147.416 501.757 140.659C496.176 133.878 492.163 122.576 492.163 104.556H490.163ZM688.539 154.535H689.539V153.535H688.539V154.535ZM688.539 161V162H689.539V161H688.539ZM656.214 161H655.214V162H656.214V161ZM656.214 129.421H657.214V128.421H656.214V129.421ZM655.468 129.421V128.421H654.649L654.488 129.225L655.468 129.421ZM591.317 103.811L591.208 102.816L590.624 102.88L590.396 103.421L591.317 103.811ZM654.971 96.8483L655.08 97.8424L655.971 97.7449V96.8483H654.971ZM614.441 84.9131H615.441V84.7792L615.406 84.65L614.441 84.9131ZM614.441 85.6591L614.533 86.6548L615.441 86.5713V85.6591H614.441ZM592.809 87.6482L591.86 87.9645L592.111 88.7166L592.9 88.644L592.809 87.6482ZM654.474 104.059L655.471 104.131L655.566 102.818L654.275 103.079L654.474 104.059ZM612.701 112.513L612.502 111.533L611.973 111.64L611.772 112.142L612.701 112.513ZM676.101 99.8321V143.595H678.101V99.8321H676.101ZM676.101 143.595C676.101 148.168 677.047 151.279 679.281 153.183C681.472 155.051 684.662 155.535 688.539 155.535V153.535C684.707 153.535 682.178 153.025 680.578 151.661C679.02 150.332 678.101 147.972 678.101 143.595H676.101ZM687.539 154.535V161H689.539V154.535H687.539ZM688.539 160H656.214V162H688.539V160ZM657.214 161V129.421H655.214V161H657.214ZM656.214 128.421H655.468V130.421H656.214V128.421ZM654.488 129.225C652.888 137.223 649.952 145.365 644.701 151.491C639.483 157.579 631.928 161.741 620.906 161.741V163.741C632.511 163.741 640.621 159.324 646.219 152.793C651.784 146.3 654.816 137.782 656.449 129.618L654.488 129.225ZM620.906 161.741C610.404 161.741 602.384 158.754 596.972 152.718C591.542 146.661 588.587 137.369 588.587 124.448H586.587C586.587 137.636 589.599 147.49 595.483 154.053C601.384 160.635 610.024 163.741 620.906 163.741V161.741ZM588.587 124.448C588.587 118.559 589.573 110.499 592.238 104.2L590.396 103.421C587.59 110.052 586.587 118.403 586.587 124.448H588.587ZM591.425 104.805L655.08 97.8424L654.862 95.8542L591.208 102.816L591.425 104.805ZM655.971 96.8483V92.6213H653.971V96.8483H655.971ZM655.971 92.6213C655.971 81.606 654.224 72.8044 650.41 66.7273C646.548 60.5743 640.623 57.3075 632.593 57.3075V59.3075C639.979 59.3075 645.243 62.257 648.716 67.7906C652.237 73.4 653.971 81.7553 653.971 92.6213H655.971ZM632.593 57.3075C625.798 57.3075 620.667 59.364 617.236 62.8945C613.812 66.4181 612.198 71.2915 612.198 76.7076H614.198C614.198 71.6805 615.692 67.3538 618.67 64.2882C621.643 61.2295 626.209 59.3075 632.593 59.3075V57.3075ZM612.198 76.7076C612.198 79.8143 612.718 82.3958 613.476 85.1762L615.406 84.65C614.672 81.9601 614.198 79.5686 614.198 76.7076H612.198ZM613.441 84.9131V85.6591H615.441V84.9131H613.441ZM614.35 84.6633L592.717 86.6524L592.9 88.644L614.533 86.6548L614.35 84.6633ZM593.757 87.332C593.246 85.7982 591.819 81.9837 591.819 77.9509H589.819C589.819 82.3722 591.377 86.5145 591.86 87.9645L593.757 87.332ZM591.819 77.9509C591.819 69.3388 595.816 61.7292 603.048 56.2449C610.295 50.749 620.822 47.3723 633.836 47.3723V45.3723C620.493 45.3723 609.511 48.8335 601.839 54.6513C594.152 60.4806 589.819 68.6602 589.819 77.9509H591.819ZM633.836 47.3723C644.097 47.3723 651.819 49.2618 657.641 52.3895C663.453 55.5118 667.429 59.8987 670.158 64.9959C675.65 75.2502 676.101 88.3687 676.101 99.8321H678.101C678.101 88.4197 677.682 74.8083 671.922 64.0517C669.025 58.6434 664.78 53.9546 658.587 50.6276C652.404 47.3059 644.337 45.3723 633.836 45.3723V47.3723ZM626.625 150.065C633.73 150.065 640.419 146.366 645.572 138.779C650.71 131.217 654.345 119.774 655.471 104.131L653.476 103.987C652.365 119.426 648.789 130.485 643.918 137.656C639.063 144.802 632.947 148.065 626.625 148.065V150.065ZM654.275 103.079L612.502 111.533L612.899 113.493L654.672 105.039L654.275 103.079ZM611.772 112.142C610.214 116.038 609.463 121.651 609.463 127.184H611.463C611.463 121.775 612.204 116.448 613.629 112.885L611.772 112.142ZM609.463 127.184C609.463 133.761 610.787 139.459 613.619 143.543C616.486 147.676 620.839 150.065 626.625 150.065V148.065C621.471 148.065 617.742 145.978 615.263 142.403C612.749 138.778 611.463 133.536 611.463 127.184H609.463ZM792.974 57.0643L793.915 57.4019L794.083 56.9335L793.811 56.517L792.974 57.0643ZM784.768 79.9401L784.505 80.9049L785.397 81.1482L785.71 80.2777L784.768 79.9401ZM782.033 79.1941L781.034 79.1585L781.005 79.9504L781.77 80.1589L782.033 79.1941ZM749.211 154.535H750.211V153.535H749.211V154.535ZM749.211 161V162H750.211V161H749.211ZM702.465 161H701.465V162H702.465V161ZM702.465 154.535V153.535H701.465V154.535H702.465ZM702.465 55.0751H701.465V56.0751H702.465V55.0751ZM702.465 48.6102V47.6102H701.465V48.6102H702.465ZM737.773 48.6102H738.773V47.6102H737.773V48.6102ZM737.773 88.3942H736.773V89.3942H737.773V88.3942ZM738.271 88.3942V89.3942H739.112L739.256 88.565L738.271 88.3942ZM771.341 48.1183C780.078 48.1183 788.153 51.5188 792.137 57.6115L793.811 56.517C789.34 49.68 780.507 46.1183 771.341 46.1183V48.1183ZM792.032 56.7267L783.827 79.6025L785.71 80.2777L793.915 57.4019L792.032 56.7267ZM785.031 78.9753L782.296 78.2294L781.77 80.1589L784.505 80.9049L785.031 78.9753ZM783.032 79.2298C783.303 71.6566 777.083 64.2697 766.617 64.2697V66.2697C776.043 66.2697 781.261 72.8073 781.034 79.1585L783.032 79.2298ZM766.617 64.2697C758.778 64.2697 751.243 67.8992 745.729 77.7096C740.258 87.4421 736.773 103.249 736.773 127.681H738.773C738.773 103.377 742.251 87.9788 747.472 78.6895C752.65 69.4782 759.536 66.2697 766.617 66.2697V64.2697ZM736.773 127.681V143.595H738.773V127.681H736.773ZM736.773 143.595C736.773 148.168 737.72 151.279 739.953 153.183C742.145 155.051 745.335 155.535 749.211 155.535V153.535C745.38 153.535 742.851 153.025 741.251 151.661C739.692 150.332 738.773 147.972 738.773 143.595H736.773ZM748.211 154.535V161H750.211V154.535H748.211ZM749.211 160H702.465V162H749.211V160ZM703.465 161V154.535H701.465V161H703.465ZM702.465 155.535C706.342 155.535 709.532 155.051 711.723 153.183C713.957 151.279 714.903 148.168 714.903 143.595H712.903C712.903 147.972 711.984 150.332 710.426 151.661C708.826 153.025 706.296 153.535 702.465 153.535V155.535ZM714.903 143.595V66.0157H712.903V143.595H714.903ZM714.903 66.0157C714.903 61.4421 713.957 58.3316 711.723 56.4276C709.532 54.5593 706.342 54.0751 702.465 54.0751V56.0751C706.296 56.0751 708.826 56.5855 710.426 57.9496C711.984 59.2781 712.903 61.6379 712.903 66.0157H714.903ZM703.465 55.0751V48.6102H701.465V55.0751H703.465ZM702.465 49.6102H737.773V47.6102H702.465V49.6102ZM736.773 48.6102V88.3942H738.773V48.6102H736.773ZM737.773 89.3942H738.271V87.3942H737.773V89.3942ZM739.256 88.565C740.864 79.2902 743.694 69.1266 748.746 61.3055C753.773 53.5225 760.95 48.1183 771.341 48.1183V46.1183C760.1 46.1183 752.358 52.0277 747.066 60.2204C741.799 68.3751 738.91 78.8494 737.285 88.2234L739.256 88.565ZM895.248 127.432L895.62 126.504L894.756 126.158L894.349 126.995L895.248 127.432ZM900.221 129.421L901.17 129.738L901.468 128.843L900.593 128.493L900.221 129.421ZM898.481 103.065L898.511 104.064L899.367 104.038L899.473 103.189L898.481 103.065ZM824.632 105.302L824.602 104.303L823.606 104.333L823.632 105.328L824.632 105.302ZM824.881 97.097L823.882 97.0439L823.821 98.1835L824.959 98.0939L824.881 97.097ZM875.356 93.1186L875.435 94.1155L876.166 94.0578L876.331 93.3434L875.356 93.1186ZM894.877 128.361L899.85 130.35L900.593 128.493L895.62 126.504L894.877 128.361ZM899.273 129.105C897.309 134.995 893.643 143.164 886.958 149.85C880.297 156.51 870.601 161.741 856.459 161.741V163.741C871.16 163.741 881.357 158.279 888.372 151.264C895.362 144.274 899.155 135.783 901.17 129.738L899.273 129.105ZM856.459 161.741C840.247 161.741 826.855 156.893 817.514 147.34C808.172 137.785 802.756 123.394 802.756 104.059H800.756C800.756 123.762 806.281 138.712 816.084 148.738C825.889 158.766 839.849 163.741 856.459 163.741V161.741ZM802.756 104.059C802.756 85.2064 807.745 71.0582 816.506 61.6302C825.259 52.2116 837.897 47.3723 853.475 47.3723V45.3723C837.475 45.3723 824.254 50.3547 815.041 60.2687C805.837 70.1733 800.756 84.8684 800.756 104.059H802.756ZM853.475 47.3723C868.081 47.3723 879.174 51.542 886.616 58.9836C894.058 66.4258 897.978 77.2704 897.978 90.8807H899.978C899.978 76.8909 895.942 65.4813 888.03 57.5694C880.117 49.6568 868.459 45.3723 853.475 45.3723V47.3723ZM897.978 90.8807C897.978 96.1094 897.977 99.033 897.489 102.941L899.473 103.189C899.979 99.1393 899.978 96.0953 899.978 90.8807H897.978ZM898.451 102.065L824.602 104.303L824.662 106.302L898.511 104.064L898.451 102.065ZM823.632 105.328C824.009 119.77 827.716 130.906 834.356 138.443C841.015 146.003 850.51 149.816 862.178 149.816V147.816C850.97 147.816 842.066 144.17 835.857 137.121C829.628 130.051 826.001 119.43 825.632 105.276L823.632 105.328ZM862.178 149.816C882.626 149.816 891.845 136.728 896.148 127.869L894.349 126.995C890.198 135.542 881.514 147.816 862.178 147.816V149.816ZM854.221 57.3075C846.021 57.3075 838.756 60.0744 833.375 66.5251C828.024 72.9401 824.634 82.8811 823.882 97.0439L825.879 97.15C826.619 83.2154 829.943 73.7617 834.911 67.8063C839.849 61.8866 846.508 59.3075 854.221 59.3075V57.3075ZM824.959 98.0939L875.435 94.1155L875.278 92.1216L824.802 96.1L824.959 98.0939ZM876.331 93.3434C877.092 90.0462 877.6 86.4894 877.6 82.178H875.6C875.6 86.3206 875.113 89.7259 874.382 92.8937L876.331 93.3434ZM877.6 82.178C877.6 75.6282 875.481 69.4176 871.479 64.8299C867.463 60.2269 861.593 57.3075 854.221 57.3075V59.3075C861.023 59.3075 866.341 61.9828 869.972 66.1447C873.616 70.3219 875.6 76.0466 875.6 82.178H877.6ZM1091.7 112.513L1091.9 111.533L1090.98 111.349L1090.74 112.252L1091.7 112.513ZM1097.92 113.756L1098.91 113.915L1099.06 112.965L1098.12 112.776L1097.92 113.756ZM1096.68 67.5076L1096.58 68.5029L1097.68 68.6097V67.5076H1096.68ZM1068.58 64.7724L1067.61 64.5065L1067.3 65.6526L1068.48 65.7677L1068.58 64.7724ZM1045.95 145.092C1074.8 145.092 1088.59 127.826 1092.67 112.775L1090.74 112.252C1086.86 126.541 1073.79 143.092 1045.95 143.092V145.092ZM1091.51 113.494L1097.72 114.737L1098.12 112.776L1091.9 111.533L1091.51 113.494ZM1096.93 113.598C1095.33 123.591 1091.89 135.613 1083.31 145.132C1074.77 154.615 1061.01 161.741 1038.49 161.741V163.741C1061.48 163.741 1075.81 156.445 1084.8 146.471C1093.75 136.533 1097.28 124.063 1098.91 113.915L1096.93 113.598ZM1038.49 161.741C1016.24 161.741 999.076 153.946 987.451 139.85C975.804 125.727 969.622 105.157 969.622 79.4428H967.622C967.622 105.448 973.872 126.527 985.908 141.123C997.968 155.746 1015.74 163.741 1038.49 163.741V161.741ZM969.622 79.4428C969.622 55.6239 976.162 36.048 987.964 22.4423C999.751 8.85309 1016.87 1.12345 1038.24 1.12345V-0.87655C1016.35 -0.87655 998.66 7.05876 986.453 21.1318C974.26 35.1885 967.622 55.2722 967.622 79.4428H969.622ZM1038.24 1.12345C1062.13 1.12345 1076.4 8.86448 1084.74 20.2643C1093.13 31.7259 1095.68 47.0697 1095.68 62.5346H1097.68C1097.68 46.9182 1095.12 31.0564 1086.36 19.0828C1077.55 7.04737 1062.6 -0.87655 1038.24 -0.87655V1.12345ZM1095.68 62.5346V67.5076H1097.68V62.5346H1095.68ZM1096.77 66.5123L1068.68 63.7772L1068.48 65.7677L1096.58 68.5029L1096.77 66.5123ZM1069.54 65.0384C1071.55 57.7524 1072.56 50.9491 1072.56 43.8858H1070.56C1070.56 50.747 1069.58 57.3708 1067.61 64.5065L1069.54 65.0384ZM1072.56 43.8858C1072.56 32.8651 1069.26 25.0388 1063.59 19.9836C1057.93 14.9471 1050.08 12.7992 1041.23 12.7992V14.7992C1049.78 14.7992 1057.09 16.8784 1062.26 21.477C1067.4 26.057 1070.56 33.274 1070.56 43.8858H1072.56ZM1041.23 12.7992C1029.2 12.7992 1016.97 16.6018 1007.75 26.9336C998.55 37.2506 992.487 53.9358 992.487 79.4428H994.487C994.487 54.2252 1000.48 38.0886 1009.25 28.2649C1017.99 18.4561 1029.63 14.7992 1041.23 14.7992V12.7992ZM992.487 79.4428C992.487 99.6156 997.561 116.024 1006.82 127.411C1016.1 138.82 1029.51 145.092 1045.95 145.092V143.092C1030.07 143.092 1017.24 137.055 1008.37 126.149C999.483 115.218 994.487 99.3027 994.487 79.4428H992.487ZM1215.71 154.535H1216.71V153.535H1215.71V154.535ZM1215.71 161V162H1216.71V161H1215.71ZM1183.38 161H1182.38V162H1183.38V161ZM1183.38 129.421H1184.38V128.421H1183.38V129.421ZM1182.64 129.421V128.421H1181.82L1181.65 129.225L1182.64 129.421ZM1118.48 103.811L1118.37 102.816L1117.79 102.88L1117.56 103.421L1118.48 103.811ZM1182.14 96.8483L1182.25 97.8424L1183.14 97.7449V96.8483H1182.14ZM1141.61 84.9131H1142.61V84.7792L1142.57 84.65L1141.61 84.9131ZM1141.61 85.6591L1141.7 86.6548L1142.61 86.5713V85.6591H1141.61ZM1119.98 87.6482L1119.03 87.9645L1119.28 88.7166L1120.07 88.644L1119.98 87.6482ZM1181.64 104.059L1182.64 104.131L1182.73 102.818L1181.44 103.079L1181.64 104.059ZM1139.87 112.513L1139.67 111.533L1139.14 111.64L1138.94 112.142L1139.87 112.513ZM1203.27 99.8321V143.595H1205.27V99.8321H1203.27ZM1203.27 143.595C1203.27 148.168 1204.21 151.279 1206.45 153.183C1208.64 155.051 1211.83 155.535 1215.71 155.535V153.535C1211.87 153.535 1209.35 153.025 1207.75 151.661C1206.19 150.332 1205.27 147.972 1205.27 143.595H1203.27ZM1214.71 154.535V161H1216.71V154.535H1214.71ZM1215.71 160H1183.38V162H1215.71V160ZM1184.38 161V129.421H1182.38V161H1184.38ZM1183.38 128.421H1182.64V130.421H1183.38V128.421ZM1181.65 129.225C1180.06 137.223 1177.12 145.365 1171.87 151.491C1166.65 157.579 1159.09 161.741 1148.07 161.741V163.741C1159.68 163.741 1167.79 159.324 1173.39 152.793C1178.95 146.3 1181.98 137.782 1183.62 129.618L1181.65 129.225ZM1148.07 161.741C1137.57 161.741 1129.55 158.754 1124.14 152.718C1118.71 146.661 1115.75 137.369 1115.75 124.448H1113.75C1113.75 137.636 1116.77 147.49 1122.65 154.053C1128.55 160.635 1137.19 163.741 1148.07 163.741V161.741ZM1115.75 124.448C1115.75 118.559 1116.74 110.499 1119.4 104.2L1117.56 103.421C1114.76 110.052 1113.75 118.403 1113.75 124.448H1115.75ZM1118.59 104.805L1182.25 97.8424L1182.03 95.8542L1118.37 102.816L1118.59 104.805ZM1183.14 96.8483V92.6213H1181.14V96.8483H1183.14ZM1183.14 92.6213C1183.14 81.606 1181.39 72.8044 1177.58 66.7273C1173.71 60.5743 1167.79 57.3075 1159.76 57.3075V59.3075C1167.15 59.3075 1172.41 62.257 1175.88 67.7906C1179.4 73.4 1181.14 81.7553 1181.14 92.6213H1183.14ZM1159.76 57.3075C1152.97 57.3075 1147.83 59.364 1144.4 62.8945C1140.98 66.4181 1139.36 71.2915 1139.36 76.7076H1141.36C1141.36 71.6805 1142.86 67.3538 1145.84 64.2882C1148.81 61.2295 1153.38 59.3075 1159.76 59.3075V57.3075ZM1139.36 76.7076C1139.36 79.8143 1139.89 82.3958 1140.64 85.1762L1142.57 84.65C1141.84 81.9601 1141.36 79.5686 1141.36 76.7076H1139.36ZM1140.61 84.9131V85.6591H1142.61V84.9131H1140.61ZM1141.52 84.6633L1119.88 86.6524L1120.07 88.644L1141.7 86.6548L1141.52 84.6633ZM1120.92 87.332C1120.41 85.7982 1118.99 81.9837 1118.99 77.9509H1116.99C1116.99 82.3722 1118.54 86.5145 1119.03 87.9645L1120.92 87.332ZM1118.99 77.9509C1118.99 69.3388 1122.98 61.7292 1130.22 56.2449C1137.46 50.749 1147.99 47.3723 1161 47.3723V45.3723C1147.66 45.3723 1136.68 48.8335 1129.01 54.6513C1121.32 60.4806 1116.99 68.6602 1116.99 77.9509H1118.99ZM1161 47.3723C1171.26 47.3723 1178.99 49.2618 1184.81 52.3895C1190.62 55.5118 1194.6 59.8987 1197.33 64.9959C1202.82 75.2502 1203.27 88.3687 1203.27 99.8321H1205.27C1205.27 88.4197 1204.85 74.8083 1199.09 64.0517C1196.19 58.6434 1191.95 53.9546 1185.75 50.6276C1179.57 47.3059 1171.5 45.3723 1161 45.3723V47.3723ZM1153.79 150.065C1160.9 150.065 1167.59 146.366 1172.74 138.779C1177.88 131.217 1181.51 119.774 1182.64 104.131L1180.64 103.987C1179.53 119.426 1175.96 130.485 1171.09 137.656C1166.23 144.802 1160.11 148.065 1153.79 148.065V150.065ZM1181.44 103.079L1139.67 111.533L1140.07 113.493L1181.84 105.039L1181.44 103.079ZM1138.94 112.142C1137.38 116.038 1136.63 121.651 1136.63 127.184H1138.63C1138.63 121.775 1139.37 116.448 1140.8 112.885L1138.94 112.142ZM1136.63 127.184C1136.63 133.761 1137.95 139.459 1140.79 143.543C1143.65 147.676 1148.01 150.065 1153.79 150.065V148.065C1148.64 148.065 1144.91 145.978 1142.43 142.403C1139.92 138.778 1138.63 133.536 1138.63 127.184H1136.63ZM1320.14 57.0643L1321.08 57.4019L1321.25 56.9335L1320.98 56.517L1320.14 57.0643ZM1311.94 79.9401L1311.67 80.9049L1312.56 81.1482L1312.88 80.2777L1311.94 79.9401ZM1309.2 79.1941L1308.2 79.1585L1308.17 79.9504L1308.94 80.1589L1309.2 79.1941ZM1276.38 154.535H1277.38V153.535H1276.38V154.535ZM1276.38 161V162H1277.38V161H1276.38ZM1229.63 161H1228.63V162H1229.63V161ZM1229.63 154.535V153.535H1228.63V154.535H1229.63ZM1229.63 55.0751H1228.63V56.0751H1229.63V55.0751ZM1229.63 48.6102V47.6102H1228.63V48.6102H1229.63ZM1264.94 48.6102H1265.94V47.6102H1264.94V48.6102ZM1264.94 88.3942H1263.94V89.3942H1264.94V88.3942ZM1265.44 88.3942V89.3942H1266.28L1266.42 88.565L1265.44 88.3942ZM1298.51 48.1183C1307.25 48.1183 1315.32 51.5188 1319.3 57.6115L1320.98 56.517C1316.51 49.68 1307.67 46.1183 1298.51 46.1183V48.1183ZM1319.2 56.7267L1310.99 79.6025L1312.88 80.2777L1321.08 57.4019L1319.2 56.7267ZM1312.2 78.9753L1309.46 78.2294L1308.94 80.1589L1311.67 80.9049L1312.2 78.9753ZM1310.2 79.2298C1310.47 71.6566 1304.25 64.2697 1293.78 64.2697V66.2697C1303.21 66.2697 1308.43 72.8073 1308.2 79.1585L1310.2 79.2298ZM1293.78 64.2697C1285.95 64.2697 1278.41 67.8992 1272.9 77.7096C1267.43 87.4421 1263.94 103.249 1263.94 127.681H1265.94C1265.94 103.377 1269.42 87.9788 1274.64 78.6895C1279.82 69.4782 1286.7 66.2697 1293.78 66.2697V64.2697ZM1263.94 127.681V143.595H1265.94V127.681H1263.94ZM1263.94 143.595C1263.94 148.168 1264.89 151.279 1267.12 153.183C1269.31 155.051 1272.5 155.535 1276.38 155.535V153.535C1272.55 153.535 1270.02 153.025 1268.42 151.661C1266.86 150.332 1265.94 147.972 1265.94 143.595H1263.94ZM1275.38 154.535V161H1277.38V154.535H1275.38ZM1276.38 160H1229.63V162H1276.38V160ZM1230.63 161V154.535H1228.63V161H1230.63ZM1229.63 155.535C1233.51 155.535 1236.7 155.051 1238.89 153.183C1241.12 151.279 1242.07 148.168 1242.07 143.595H1240.07C1240.07 147.972 1239.15 150.332 1237.59 151.661C1235.99 153.025 1233.46 153.535 1229.63 153.535V155.535ZM1242.07 143.595V66.0157H1240.07V143.595H1242.07ZM1242.07 66.0157C1242.07 61.4421 1241.12 58.3316 1238.89 56.4276C1236.7 54.5593 1233.51 54.0751 1229.63 54.0751V56.0751C1233.46 56.0751 1235.99 56.5855 1237.59 57.9496C1239.15 59.2781 1240.07 61.6379 1240.07 66.0157H1242.07ZM1230.63 55.0751V48.6102H1228.63V55.0751H1230.63ZM1229.63 49.6102H1264.94V47.6102H1229.63V49.6102ZM1263.94 48.6102V88.3942H1265.94V48.6102H1263.94ZM1264.94 89.3942H1265.44V87.3942H1264.94V89.3942ZM1266.42 88.565C1268.03 79.2902 1270.86 69.1266 1275.91 61.3055C1280.94 53.5225 1288.12 48.1183 1298.51 48.1183V46.1183C1287.27 46.1183 1279.52 52.0277 1274.23 60.2204C1268.97 68.3751 1266.08 78.8494 1264.45 88.2234L1266.42 88.565ZM1430.47 2.60995H1431.47V1.60995H1430.47V2.60995ZM1441.9 154.535H1442.9V153.535H1441.9V154.535ZM1441.9 161V162H1442.9V161H1441.9ZM1406.6 161H1405.6V162H1406.6V161ZM1406.6 136.881H1407.6L1405.64 136.576L1406.6 136.881ZM1406.6 70.4914L1405.64 70.7962L1407.6 70.4914H1406.6ZM1395.16 9.07485H1394.16V10.0749H1395.16V9.07485ZM1395.16 2.60995V1.60995H1394.16V2.60995H1395.16ZM1429.47 2.60995V143.595H1431.47V2.60995H1429.47ZM1429.47 143.595C1429.47 148.168 1430.41 151.279 1432.65 153.183C1434.84 155.051 1438.03 155.535 1441.9 155.535V153.535C1438.07 153.535 1435.54 153.025 1433.94 151.661C1432.38 150.332 1431.47 147.972 1431.47 143.595H1429.47ZM1440.9 154.535V161H1442.9V154.535H1440.9ZM1441.9 160H1406.6V162H1441.9V160ZM1407.6 161V136.881H1405.6V161H1407.6ZM1405.64 136.576C1401.53 149.391 1388.7 161.741 1370.29 161.741V163.741C1389.68 163.741 1403.2 150.728 1407.55 137.186L1405.64 136.576ZM1370.29 161.741C1358.14 161.741 1347.15 158.675 1339.17 150.123C1331.17 141.556 1326.04 127.304 1326.04 104.556H1324.04C1324.04 127.561 1329.22 142.401 1337.7 151.488C1346.2 160.59 1357.82 163.741 1370.29 163.741V161.741ZM1326.04 104.556C1326.04 81.8092 1331.17 67.5571 1339.17 58.9898C1347.15 50.4379 1358.14 47.3723 1370.29 47.3723V45.3723C1357.82 45.3723 1346.2 48.523 1337.7 57.6253C1329.22 66.7121 1324.04 81.5521 1324.04 104.556H1326.04ZM1370.29 47.3723C1389.01 47.3723 1401.8 58.7843 1405.64 70.7962L1407.55 70.1866C1403.43 57.3334 1389.87 45.3723 1370.29 45.3723V47.3723ZM1407.6 70.4914V20.0154H1405.6V70.4914H1407.6ZM1407.6 20.0154C1407.6 15.4418 1406.65 12.3314 1404.42 10.4274C1402.22 8.55901 1399.03 8.07485 1395.16 8.07485V10.0749C1398.99 10.0749 1401.52 10.5853 1403.12 11.9494C1404.68 13.2778 1405.6 15.6377 1405.6 20.0154H1407.6ZM1396.16 9.07485V2.60995H1394.16V9.07485H1396.16ZM1395.16 3.60995H1430.47V1.60995H1395.16V3.60995ZM1376.51 151.805C1383.72 151.805 1391.54 149.222 1397.55 141.93C1403.53 134.662 1407.6 122.84 1407.6 104.556H1405.6C1405.6 122.576 1401.58 133.878 1396 140.659C1390.44 147.416 1383.22 149.805 1376.51 149.805V151.805ZM1407.6 104.556C1407.6 86.2732 1403.53 74.4507 1397.55 67.1829C1391.54 59.891 1383.72 57.3075 1376.51 57.3075V59.3075C1383.22 59.3075 1390.44 61.6971 1396 68.4539C1401.58 75.2348 1405.6 86.5368 1405.6 104.556H1407.6ZM1376.51 57.3075C1371.06 57.3075 1366.59 58.6081 1362.96 61.0308C1359.33 63.4506 1356.62 66.9434 1354.62 71.2174C1350.64 79.7272 1349.4 91.4784 1349.4 104.556H1351.4C1351.4 91.5263 1352.65 80.153 1356.43 72.0654C1358.32 68.0408 1360.81 64.8666 1364.07 62.6941C1367.32 60.5245 1371.39 59.3075 1376.51 59.3075V57.3075ZM1349.4 104.556C1349.4 117.748 1350.51 129.503 1354.43 137.984C1356.41 142.247 1359.1 145.72 1362.75 148.121C1366.41 150.524 1370.94 151.805 1376.51 151.805V149.805C1371.26 149.805 1367.12 148.6 1363.85 146.45C1360.58 144.298 1358.1 141.15 1356.25 137.145C1352.53 129.091 1351.4 117.722 1351.4 104.556H1349.4ZM1496.66 90.632L1496.93 89.6673L1496.92 89.6661L1496.66 90.632ZM1515.81 95.8537L1515.55 96.8185L1515.55 96.8192L1515.81 95.8537ZM1456.13 144.838H1455.13V145.182L1455.34 145.453L1456.13 144.838ZM1456.13 113.756V112.756H1455.13V113.756H1456.13ZM1460.36 113.756L1461.34 113.564L1461.18 112.756H1460.36V113.756ZM1505.86 114.254L1506.12 113.286L1506.11 113.286L1505.86 114.254ZM1483.73 108.535L1483.98 107.567L1483.98 107.566L1483.73 108.535ZM1537.69 58.3075L1538.69 58.2231L1538.65 57.8149L1538.34 57.5483L1537.69 58.3075ZM1540.18 87.6482L1540.29 88.6414L1541.25 88.5283L1541.17 87.5638L1540.18 87.6482ZM1535.95 88.1455L1535.01 88.4913L1535.28 89.2308L1536.07 89.1387L1535.95 88.1455ZM1496.4 91.5968L1515.55 96.8185L1516.07 94.8889L1496.93 89.6673L1496.4 91.5968ZM1515.55 96.8192C1526.45 99.7592 1533.06 104.437 1536.96 110.039C1540.87 115.652 1542.16 122.323 1542.16 129.421H1544.16C1544.16 122.099 1542.84 114.969 1538.6 108.896C1534.36 102.811 1527.3 97.9158 1516.07 94.8882L1515.55 96.8192ZM1542.16 129.421C1542.16 136.418 1540.61 141.892 1538.06 146.179C1535.5 150.466 1531.9 153.622 1527.73 155.929C1519.34 160.56 1508.67 161.741 1499.65 161.741V163.741C1508.78 163.741 1519.86 162.559 1528.69 157.679C1533.13 155.231 1537.01 151.844 1539.77 147.203C1542.54 142.562 1544.16 136.722 1544.16 129.421H1542.16ZM1499.65 161.741C1476.09 161.741 1462.95 151.938 1456.92 144.222L1455.34 145.453C1461.75 153.652 1475.47 163.741 1499.65 163.741V161.741ZM1457.13 144.838V113.756H1455.13V144.838H1457.13ZM1456.13 114.756H1460.36V112.756H1456.13V114.756ZM1459.38 113.949C1461.89 126.763 1466.63 136.243 1473.35 142.523C1480.1 148.817 1488.75 151.805 1498.9 151.805V149.805C1489.16 149.805 1481.03 146.951 1474.72 141.061C1468.39 135.156 1463.8 126.112 1461.34 113.564L1459.38 113.949ZM1498.9 151.805C1506.01 151.805 1511.98 150.093 1516.19 146.671C1520.43 143.225 1522.78 138.137 1522.78 131.659H1520.78C1520.78 137.614 1518.65 142.099 1514.93 145.118C1511.19 148.161 1505.72 149.805 1498.9 149.805V151.805ZM1522.78 131.659C1522.78 126.843 1521.34 122.92 1518.47 119.849C1515.62 116.802 1511.44 114.681 1506.12 113.286L1505.61 115.221C1510.73 116.562 1514.51 118.543 1517.01 121.215C1519.48 123.864 1520.78 127.275 1520.78 131.659H1522.78ZM1506.11 113.286L1483.98 107.567L1483.48 109.503L1505.61 115.222L1506.11 113.286ZM1483.98 107.566C1475.9 105.485 1469.82 102.144 1465.76 97.6685C1461.72 93.2099 1459.62 87.5522 1459.62 80.686H1457.62C1457.62 87.993 1459.87 94.1461 1464.28 99.0119C1468.68 103.861 1475.15 107.358 1483.48 109.503L1483.98 107.566ZM1459.62 80.686C1459.62 71.271 1463.35 62.977 1470.42 57.0209C1477.5 51.054 1488.01 47.3723 1501.64 47.3723V45.3723C1487.66 45.3723 1476.66 49.1502 1469.13 55.4914C1461.59 61.8435 1457.62 70.7064 1457.62 80.686H1459.62ZM1501.64 47.3723C1515.37 47.3723 1528.55 51.7927 1537.04 59.0668L1538.34 57.5483C1529.42 49.9034 1515.75 45.3723 1501.64 45.3723V47.3723ZM1536.69 58.392L1539.18 87.7327L1541.17 87.5638L1538.69 58.2231L1536.69 58.392ZM1540.06 86.6551L1535.83 87.1524L1536.07 89.1387L1540.29 88.6414L1540.06 86.6551ZM1536.89 87.7998C1533.38 78.2805 1529.08 70.6542 1523.39 65.4046C1517.66 60.1273 1510.57 57.3075 1501.64 57.3075V59.3075C1510.1 59.3075 1516.69 61.9581 1522.03 66.8755C1527.4 71.8205 1531.56 79.1132 1535.01 88.4913L1536.89 87.7998ZM1501.64 57.3075C1495.37 57.3075 1489.74 59.0329 1485.65 62.1425C1481.54 65.2656 1479 69.7762 1479 75.2157H1481C1481 70.4606 1483.19 66.5171 1486.86 63.7348C1490.53 60.939 1495.72 59.3075 1501.64 59.3075V57.3075ZM1479 75.2157C1479 79.075 1479.71 82.3052 1482.4 85.0251C1485.02 87.6799 1489.41 89.724 1496.4 91.598L1496.92 89.6661C1489.99 87.8104 1486.05 85.8761 1483.82 83.62C1481.66 81.429 1481 78.816 1481 75.2157H1479Z" fill="white" mask="url(#path-1-inside-1_1_874)"/>
<defs>
<filter id="filter0_i_1_874" x="0.732056" y="0.123535" width="1542.43" height="209.115" filterUnits="userSpaceOnUse" color-interpolation-filters="sRGB">
<feFlood flood-opacity="0" result="BackgroundImageFix"/>
<feBlend mode="normal" in="SourceGraphic" in2="BackgroundImageFix" result="shape"/>
<feColorMatrix in="SourceAlpha" type="matrix" values="0 0 0 0 0 0 0 0 0 0 0 0 0 0 0 0 0 0 127 0" result="hardAlpha"/>
<feOffset/>
<feGaussianBlur stdDeviation="10"/>
<feComposite in2="hardAlpha" operator="arithmetic" k2="-1" k3="1"/>
<feColorMatrix type="matrix" values="0 0 0 0 1 0 0 0 0 0.877308 0 0 0 0 0.824327 0 0 0 0.7 0"/>
<feBlend mode="normal" in2="shape" result="effect1_innerShadow_1_874"/>
</filter>
<linearGradient id="paint0_linear_1_874" x1="183.664" y1="5" x2="183.664" y2="208" gradientUnits="userSpaceOnUse">
<stop offset="0.45"/>
<stop offset="1" stop-color="#D1AD83"/>
</linearGradient>
</defs>
</svg>
